<svg height="1024" node-id="1" sillyvg="true" template-height="1024" template-width="1024" version="1.1" viewBox="0 0 1024 1024" width="1024" xmlns="http://www.w3.org/2000/svg" xmlns:xlink="http://www.w3.org/1999/xlink"><defs node-id="58"><clipPath id="master_svg0_34_1792" node-id="3"><path d="M 0.00 0.00 L 1024.00 0.00 L 1024.00 1024.00 L 0.00 1024.00 Z" fill="#000000" fill-rule="nonzero" node-id="61" stroke="none" target-height="1024" target-width="1024" target-x="0" target-y="0"/></clipPath></defs><g node-id="193"><g clip-path="url(#master_svg0_34_1792)" group-id="1" id="sillyvg_g_1" node-id="67"><path d="M 742.40 531.10 L 741.90 732.90 L 741.60 736.70 L 740.70 740.60 L 739.10 744.40 L 736.70 748.40 L 734.00 751.90 L 730.50 755.30 L 726.30 758.70 L 721.10 762.00 L 403.20 946.70 L 397.50 949.70 L 391.40 952.30 L 384.80 954.50 L 378.00 956.20 L 371.10 957.50 L 363.90 958.30 L 356.60 958.80 L 349.30 958.80 L 342.10 958.30 L 334.80 957.50 L 327.80 956.20 L 321.10 954.50 L 314.50 952.30 L 308.30 949.70 L 302.60 946.70 L 297.40 943.40 L 293.10 940.00 L 289.60 936.60 L 286.80 933.10 L 284.50 929.20 L 282.80 925.30 L 281.90 921.50 L 281.50 917.60 L 282.10 715.70 L 282.40 719.60 L 283.40 723.40 L 285.00 727.30 L 287.40 731.20 L 290.20 734.70 L 293.70 738.10 L 297.90 741.50 L 303.10 744.90 L 308.80 747.80 L 315.00 750.40 L 321.60 752.60 L 328.40 754.30 L 335.40 755.60 L 342.60 756.40 L 349.90 756.90 L 357.10 756.90 L 364.40 756.40 L 371.60 755.60 L 378.60 754.30 L 385.40 752.60 L 392.00 750.40 L 398.10 747.80 L 403.80 744.90 L 721.80 560.00 L 726.80 556.80 L 731.10 553.40 L 734.50 550.00 L 737.20 546.50 L 739.60 542.60 L 741.20 538.80 L 742.10 535.00 L 742.40 531.10 Z" fill="#ffb63c" fill-rule="nonzero" group-id="1,2" node-id="71" stroke="none" target-height="427.7" target-width="460.90002" target-x="281.5" target-y="531.1"/><path d="M 709.60 482.60 L 709.00 684.50 L 708.30 679.90 L 705.90 675.30 L 703.70 672.50 L 700.60 669.80 L 696.60 667.10 L 697.20 465.20 L 701.20 467.90 L 704.20 470.60 L 706.50 473.40 L 708.90 478.00 L 709.60 482.60 Z" fill="#512e35" fill-rule="nonzero" group-id="1,3" node-id="76" stroke="none" target-height="219.29999" target-width="13" target-x="696.6" target-y="465.2"/><path d="M 624.50 684.30 L 625.30 480.10 L 626.80 475.60 L 628.20 473.30 L 630.40 470.50 L 633.50 467.80 L 637.40 465.20 L 641.60 463.10 L 646.30 461.30 L 651.30 459.80 L 656.50 458.80 L 661.80 458.20 L 667.20 458.00 L 672.70 458.20 L 678.00 458.80 L 683.10 459.80 L 688.20 461.20 L 692.90 463.00 L 697.20 465.20 L 696.60 667.10 L 692.30 665.00 L 687.60 663.20 L 682.60 661.70 L 677.40 660.70 L 672.10 660.20 L 666.60 660.00 L 661.20 660.20 L 655.90 660.80 L 650.70 661.80 L 645.70 663.20 L 641.10 665.00 L 636.80 667.10 L 632.90 669.80 L 629.90 672.40 L 627.60 675.20 L 626.20 677.50 L 625.20 679.80 L 624.50 684.30 Z" fill="#613941" fill-rule="nonzero" group-id="1,4" node-id="81" stroke="none" target-height="226.29999" target-width="72.70001" target-x="624.5" target-y="458"/><path d="M 636.60 531.40 L 636.00 733.30 L 635.70 730.40 L 635.00 727.60 L 633.80 724.80 L 632.10 722.10 L 627.60 717.20 L 621.10 712.60 L 615.90 710.00 L 610.40 707.80 L 604.30 706.10 L 598.10 705.00 L 591.80 704.20 L 585.30 704.00 L 578.70 704.20 L 572.40 705.00 L 566.20 706.10 L 560.20 707.80 L 554.60 710.00 L 549.50 712.60 L 550.10 510.70 L 555.20 508.10 L 560.80 505.90 L 566.80 504.20 L 573.00 503.00 L 579.30 502.30 L 585.80 502.10 L 592.30 502.30 L 598.70 503.00 L 604.90 504.20 L 610.90 505.90 L 616.50 508.10 L 621.60 510.70 L 628.20 515.30 L 632.70 520.10 L 634.40 522.90 L 635.60 525.70 L 636.30 528.50 L 636.60 531.40 Z" fill="#613941" fill-rule="nonzero" group-id="1,5" node-id="86" stroke="none" target-height="231.19998" target-width="87.099976" target-x="549.5" target-y="502.1"/><path d="M 550.10 510.70 L 549.50 712.60 L 316.90 847.80 L 317.40 645.90 L 550.10 510.70 Z" fill="#70444d" fill-rule="nonzero" group-id="1,6" node-id="91" stroke="none" target-height="337.09998" target-width="233.19998" target-x="316.9" target-y="510.7"/><path d="M 317.40 645.90 L 316.90 847.80 L 310.40 852.40 L 305.90 857.30 L 304.20 860.00 L 303.10 862.80 L 302.40 865.60 L 302.10 868.50 L 302.70 666.60 L 302.90 663.70 L 303.60 660.90 L 304.80 658.10 L 306.50 655.40 L 310.90 650.50 L 317.40 645.90 Z" fill="#70444d" fill-rule="nonzero" group-id="1,7" node-id="96" stroke="none" target-height="222.59998" target-width="15.299988" target-x="302.1" target-y="645.9"/><path d="M 721.80 511.00 L 403.80 695.70 L 398.10 698.70 L 392.00 701.30 L 385.40 703.50 L 378.60 705.20 L 371.60 706.50 L 364.40 707.40 L 357.20 707.80 L 349.90 707.80 L 342.60 707.40 L 335.40 706.50 L 328.40 705.20 L 321.60 703.50 L 315.00 701.30 L 308.80 698.70 L 303.10 695.80 L 298.00 692.40 L 293.70 689.10 L 290.20 685.70 L 287.40 682.20 L 285.10 678.30 L 283.40 674.40 L 282.40 670.60 L 282.10 666.70 L 282.20 663.60 L 282.80 660.50 L 283.80 657.40 L 285.20 654.30 L 287.10 651.10 L 289.90 647.60 L 293.30 644.20 L 297.60 640.80 L 302.80 637.40 L 620.70 452.60 L 626.40 449.70 L 632.60 447.10 L 639.20 444.90 L 645.90 443.20 L 652.90 441.90 L 660.10 441.00 L 667.40 440.60 L 674.70 440.60 L 681.90 441.00 L 689.20 441.90 L 696.20 443.20 L 702.90 444.90 L 709.50 447.10 L 715.70 449.70 L 721.40 452.60 L 726.60 456.00 L 730.90 459.40 L 734.40 462.80 L 737.20 466.30 L 739.50 470.20 L 741.20 474.10 L 742.10 477.90 L 742.50 481.80 L 742.20 485.70 L 741.30 489.50 L 739.70 493.40 L 737.30 497.30 L 734.60 500.80 L 731.10 504.30 L 726.90 507.60 L 721.80 511.00 Z M 389.20 687.30 L 621.90 552.10 L 625.50 549.70 L 630.90 544.90 L 632.90 542.40 L 634.50 539.70 L 635.70 536.90 L 636.30 534.20 L 636.60 531.50 L 636.40 528.70 L 635.70 526.00 L 634.50 523.20 L 632.90 520.40 L 630.90 517.90 L 628.40 515.50 L 625.30 513.00 L 621.60 510.60 L 616.50 508.10 L 610.90 505.90 L 604.90 504.20 L 598.70 503.00 L 592.30 502.30 L 585.80 502.10 L 579.30 502.30 L 573.00 503.00 L 566.80 504.20 L 560.80 505.90 L 555.20 508.10 L 550.10 510.60 L 317.40 645.90 L 313.70 648.30 L 310.70 650.70 L 308.20 653.20 L 306.30 655.70 L 304.60 658.50 L 303.50 661.20 L 302.90 664.00 L 302.70 666.70 L 303.00 669.50 L 303.70 672.20 L 304.90 675.00 L 306.60 677.70 L 308.60 680.20 L 314.10 685.00 L 317.70 687.30 L 322.80 689.90 L 328.40 692.00 L 334.40 693.70 L 340.60 694.90 L 347.00 695.60 L 353.50 695.90 L 360.00 695.60 L 366.30 694.90 L 372.50 693.70 L 378.50 692.00 L 384.10 689.90 L 389.20 687.30 M 701.10 467.90 L 698.30 465.90 L 695.00 464.00 L 691.20 462.30 L 683.00 459.80 L 673.80 458.30 L 664.30 458.10 L 659.50 458.50 L 650.10 460.10 L 645.60 461.50 L 641.40 463.20 L 635.70 466.30 L 631.10 470.00 L 628.80 472.50 L 627.00 475.10 L 625.90 477.80 L 625.20 480.70 L 625.10 483.50 L 625.70 486.30 L 626.80 489.30 L 628.40 491.90 L 630.70 494.50 L 633.70 497.20 L 637.60 499.80 L 641.90 502.00 L 646.50 503.80 L 651.60 505.20 L 656.70 506.20 L 662.00 506.80 L 667.40 507.00 L 672.90 506.80 L 678.20 506.20 L 683.40 505.20 L 688.40 503.80 L 693.10 502.00 L 697.40 499.80 L 701.40 497.10 L 704.20 494.60 L 706.30 492.10 L 707.90 489.60 L 709.00 486.70 L 709.60 484.00 L 709.50 481.20 L 709.00 478.40 L 707.90 475.70 L 706.30 473.10 L 704.10 470.50 L 701.10 467.90 Z" fill="#804f59" fill-rule="nonzero" group-id="1,8" node-id="101" stroke="none" target-height="267.19998" target-width="460.4" target-x="282.1" target-y="440.6"/><path d="M 735.70 132.10 L 697.80 499.50 L 693.10 502.00 L 688.60 503.80 L 683.80 505.20 L 678.90 506.10 L 668.90 507.00 L 658.90 506.50 L 649.40 504.70 L 641.10 501.70 L 637.30 499.70 L 634.10 497.50 L 631.40 495.20 L 653.60 277.50 L 658.60 233.20 L 671.20 125.00 L 671.60 127.40 L 673.50 131.00 L 675.70 133.40 L 678.50 135.70 L 681.90 137.70 L 689.50 140.70 L 693.90 141.90 L 702.80 143.30 L 712.00 143.50 L 716.30 143.20 L 724.30 141.60 L 727.80 140.40 L 730.70 138.90 L 732.70 137.40 L 734.00 135.90 L 735.70 132.10 Z" fill="#4dcdf3" fill-rule="nonzero" group-id="1,9" node-id="106" stroke="none" target-height="382" target-width="104.29999" target-x="631.4" target-y="125"/><path d="M 716.70 316.30 L 697.80 499.50 L 693.10 502.00 L 688.60 503.80 L 683.80 505.20 L 673.90 506.80 L 668.90 507.00 L 658.90 506.50 L 649.40 504.70 L 645.10 503.30 L 641.10 501.70 L 637.30 499.70 L 634.10 497.50 L 631.40 495.20 L 631.90 487.20 L 632.30 462.10 L 650.30 309.80 L 650.80 313.00 L 652.20 315.60 L 654.40 318.00 L 657.20 320.30 L 660.60 322.30 L 668.20 325.30 L 672.60 326.50 L 681.50 327.90 L 690.70 328.10 L 695.00 327.80 L 703.10 326.20 L 706.50 325.00 L 709.40 323.50 L 712.50 321.50 L 715.10 319.20 L 716.10 317.90 L 716.70 316.30 Z" fill="#ffb63c" fill-rule="nonzero" group-id="1,10" node-id="111" stroke="none" target-height="197.20001" target-width="85.29999" target-x="631.4" target-y="309.8"/><path d="M 675.20 133.10 L 672.40 129.40 L 671.70 127.80 L 671.20 124.60 L 671.90 121.50 L 674.10 118.70 L 675.80 117.50 L 681.50 115.00 L 685.10 114.10 L 690.70 113.30 L 697.00 113.00 L 703.30 113.30 L 709.80 114.10 L 716.10 115.50 L 721.90 117.40 L 725.90 119.20 L 729.00 121.00 L 731.30 122.80 L 733.30 124.90 L 734.60 126.90 L 735.30 128.80 L 735.60 130.80 L 735.50 132.70 L 734.90 134.50 L 732.50 137.60 L 730.70 138.90 L 725.10 141.40 L 721.60 142.30 L 716.00 143.20 L 709.80 143.60 L 703.50 143.30 L 697.10 142.50 L 692.80 141.70 L 685.00 139.10 L 681.30 137.40 L 678.10 135.30 L 675.20 133.10 Z" fill="#95e2fe" fill-rule="nonzero" group-id="1,11" node-id="116" stroke="none" target-height="30.600006" target-width="64.39996" target-x="671.2" target-y="113"/><path d="M 687.20 73.50 L 683.30 126.60 L 683.40 128.20 L 684.20 129.80 L 685.70 131.60 L 690.00 134.50 L 696.70 136.90 L 703.70 138.00 L 710.60 137.90 L 716.80 136.70 L 721.50 134.50 L 723.40 132.80 L 724.50 131.20 L 724.90 129.60 L 728.80 76.50 L 728.40 78.10 L 727.40 79.70 L 725.50 81.40 L 723.00 82.80 L 720.20 83.90 L 713.70 84.90 L 706.80 84.80 L 701.70 84.00 L 697.00 82.60 L 691.70 80.10 L 689.80 78.70 L 688.20 76.90 L 687.40 75.20 L 687.20 73.50 Z" fill="#3d4449" fill-rule="nonzero" group-id="1,12" node-id="121" stroke="none" target-height="64.5" target-width="45.5" target-x="683.3" target-y="73.5"/><path d="M 690.30 68.90 L 688.50 70.50 L 687.60 72.10 L 687.20 73.60 L 687.40 75.20 L 688.20 76.80 L 689.70 78.50 L 691.50 80.00 L 697.40 82.80 L 704.10 84.50 L 711.20 85.00 L 717.70 84.40 L 720.70 83.60 L 725.50 81.40 L 727.30 79.70 L 728.40 78.10 L 728.80 76.60 L 728.70 75.00 L 728.00 73.40 L 726.50 71.70 L 724.80 70.20 L 719.20 67.50 L 712.20 65.70 L 705.00 65.20 L 698.40 65.80 L 695.20 66.60 L 690.30 68.90 Z M 640.30 303.90 L 644.00 301.40 L 647.60 296.80 L 650.60 290.10 L 653.00 281.50 L 660.30 232.00 L 664.50 195.60 L 665.90 176.70 L 667.00 170.90 L 668.80 166.70 L 671.40 163.80 L 674.50 162.40 L 677.20 161.90 L 679.10 161.90 L 680.70 161.50 L 682.20 160.70 L 683.40 159.50 L 684.30 158.10 L 684.90 156.30 L 684.90 154.50 L 684.50 152.90 L 683.70 151.40 L 682.50 150.10 L 681.00 149.20 L 676.50 148.30 L 673.70 148.50 L 670.60 149.10 L 667.70 150.30 L 664.90 151.90 L 662.10 154.30 L 659.60 157.00 L 657.30 160.30 L 655.30 164.50 L 653.30 171.40 L 652.60 175.60 L 651.20 194.90 L 649.30 212.50 L 644.40 249.10 L 639.80 279.10 L 638.30 284.50 L 636.50 289.20 L 634.70 291.80 L 633.00 292.90 L 631.80 294.20 L 631.10 295.70 L 630.80 297.30 L 631.40 300.50 L 632.30 301.90 L 633.40 303.10 L 634.80 304.00 L 636.40 304.50 L 638.20 304.50 L 640.30 303.90 Z" fill="#4f575f" fill-rule="nonzero" group-id="1,13" node-id="126" stroke="none" target-height="239.3" target-width="98" target-x="630.8" target-y="65.2"/><path d="M 544.70 354.00 L 543.00 353.60 L 541.10 353.60 L 539.30 354.00 L 537.20 354.90 L 296.90 493.70 L 293.20 496.80 L 290.20 501.10 L 288.30 506.00 L 287.80 508.60 L 287.70 513.80 L 314.80 703.20 L 315.90 707.10 L 317.80 709.80 L 319.00 710.80 L 329.80 715.00 L 327.30 713.40 L 326.20 712.10 L 324.70 708.90 L 324.30 706.80 L 297.20 517.40 L 297.20 512.20 L 297.80 509.60 L 299.70 504.60 L 302.70 500.30 L 306.40 497.30 L 546.70 358.50 L 548.70 357.60 L 550.60 357.20 L 552.50 357.20 L 554.20 357.60 L 544.70 354.00 Z" fill="#dbe6fa" fill-rule="nonzero" group-id="1,14" node-id="131" stroke="none" target-height="361.4" target-width="266.5" target-x="287.7" target-y="353.6"/><path d="M 546.70 358.50 L 548.90 357.60 L 550.80 357.10 L 552.60 357.20 L 554.30 357.60 L 555.90 358.50 L 557.30 359.80 L 558.40 361.40 L 559.20 363.30 L 559.80 365.80 L 586.80 555.20 L 586.80 560.40 L 585.40 565.60 L 583.00 570.20 L 581.40 572.30 L 577.70 575.30 L 337.30 714.10 L 335.20 715.00 L 333.30 715.40 L 331.50 715.40 L 329.70 715.00 L 328.20 714.10 L 326.80 712.80 L 325.70 711.20 L 324.90 709.30 L 324.30 706.80 L 297.30 517.40 L 297.30 512.20 L 297.80 509.60 L 298.60 507.00 L 301.10 502.40 L 302.70 500.30 L 306.40 497.30 L 546.70 358.50 Z" fill="#ebf2ff" fill-rule="nonzero" group-id="1,15" node-id="136" stroke="none" target-height="358.30002" target-width="289.5" target-x="297.3" target-y="357.1"/><path d="M 563.50 361.10 L 561.80 360.70 L 559.90 360.70 L 558.00 361.10 L 556.00 362.00 L 315.70 500.80 L 311.90 503.80 L 309.00 508.10 L 307.00 513.10 L 306.50 515.70 L 306.50 520.90 L 333.50 710.30 L 334.60 714.10 L 336.60 716.90 L 337.80 717.80 L 348.60 722.10 L 346.10 720.50 L 345.00 719.20 L 343.50 716.00 L 343.00 713.90 L 316.00 524.40 L 316.00 519.30 L 316.60 516.70 L 318.50 511.70 L 321.50 507.40 L 325.20 504.40 L 565.50 365.60 L 567.50 364.70 L 569.40 364.20 L 571.30 364.20 L 572.90 364.70 L 563.50 361.10 Z" fill="#dbe6fa" fill-rule="nonzero" group-id="1,16" node-id="141" stroke="none" target-height="361.39996" target-width="266.40002" target-x="306.5" target-y="360.7"/><path d="M 565.50 365.60 L 567.60 364.70 L 569.50 364.20 L 571.40 364.30 L 573.10 364.70 L 574.60 365.60 L 576.00 366.90 L 577.10 368.40 L 578.00 370.40 L 578.50 372.90 L 605.60 562.30 L 605.50 567.50 L 604.20 572.70 L 601.70 577.30 L 600.10 579.30 L 596.40 582.40 L 356.10 721.10 L 354.00 722.10 L 352.00 722.50 L 350.20 722.50 L 348.50 722.10 L 346.90 721.20 L 345.50 719.90 L 344.50 718.30 L 343.60 716.30 L 343.00 713.90 L 316.00 524.40 L 316.00 519.30 L 316.60 516.70 L 317.40 514.10 L 319.80 509.50 L 321.50 507.40 L 325.20 504.40 L 565.50 365.60 Z" fill="#ebf2ff" fill-rule="nonzero" group-id="1,17" node-id="146" stroke="none" target-height="358.3" target-width="289.59998" target-x="316" target-y="364.2"/><path d="M 582.20 368.10 L 580.50 367.70 L 578.70 367.70 L 576.80 368.20 L 574.80 369.10 L 334.40 507.90 L 330.70 510.90 L 329.10 513.00 L 326.60 517.60 L 325.80 520.20 L 325.30 522.80 L 325.30 527.90 L 352.30 717.40 L 352.70 719.50 L 354.20 722.70 L 355.30 724.00 L 357.90 725.60 L 367.40 729.20 L 364.80 727.50 L 363.70 726.30 L 362.20 723.10 L 361.80 721.00 L 334.80 531.50 L 334.80 526.40 L 335.30 523.80 L 336.10 521.20 L 338.60 516.50 L 340.20 514.50 L 343.90 511.50 L 584.20 372.70 L 586.30 371.80 L 588.10 371.30 L 590.00 371.30 L 591.70 371.70 L 582.20 368.10 Z" fill="#dbe6fa" fill-rule="nonzero" group-id="1,18" node-id="151" stroke="none" target-height="361.5" target-width="266.40002" target-x="325.3" target-y="367.7"/><path d="M 584.30 372.70 L 586.40 371.70 L 588.30 371.30 L 590.10 371.30 L 591.90 371.80 L 593.40 372.60 L 594.80 373.90 L 595.90 375.50 L 596.70 377.50 L 597.30 380.00 L 624.30 569.40 L 624.30 574.50 L 623.00 579.70 L 620.50 584.40 L 618.90 586.40 L 615.20 589.50 L 374.80 728.20 L 372.70 729.20 L 370.80 729.60 L 369.00 729.60 L 367.20 729.10 L 365.70 728.30 L 364.30 727.00 L 363.20 725.40 L 362.40 723.40 L 361.80 721.00 L 334.80 531.50 L 334.80 526.40 L 336.10 521.20 L 338.60 516.50 L 340.20 514.50 L 343.90 511.50 L 584.30 372.70 Z" fill="#ebf2ff" fill-rule="nonzero" group-id="1,19" node-id="156" stroke="none" target-height="358.3" target-width="289.5" target-x="334.8" target-y="371.3"/><path d="M 628.90 576.00 L 565.10 621.10 L 533.40 647.70 L 495.80 678.30 L 469.10 698.70 L 455.60 707.90 L 451.30 710.30 L 447.30 711.80 L 440.70 713.20 L 430.80 714.40 L 416.50 715.10 L 396.60 715.40 L 369.80 714.80 L 334.70 713.20 L 289.80 710.30 L 307.70 679.20 L 310.90 682.50 L 314.60 685.50 L 318.70 688.10 L 323.20 690.30 L 328.00 692.10 L 338.40 694.60 L 349.20 695.80 L 360.10 695.60 L 370.70 694.20 L 375.50 693.10 L 384.50 690.00 L 388.30 688.00 L 624.50 550.40 L 628.90 576.00 Z" fill="#804f59" fill-rule="nonzero" group-id="1,20" node-id="161" stroke="none" target-height="165" target-width="339.10004" target-x="289.8" target-y="550.4"/><path d="M 742.40 482.00 L 741.90 683.80 L 741.60 687.60 L 740.70 691.50 L 739.10 695.40 L 736.70 699.30 L 734.00 702.80 L 730.50 706.20 L 726.30 709.60 L 721.10 712.90 L 403.20 897.60 L 397.50 900.60 L 391.40 903.20 L 384.80 905.40 L 378.00 907.10 L 371.10 908.40 L 363.90 909.20 L 356.60 909.70 L 349.30 909.70 L 342.10 909.20 L 334.80 908.40 L 327.80 907.10 L 321.10 905.40 L 314.50 903.20 L 308.30 900.60 L 302.60 897.60 L 297.40 894.30 L 293.10 890.90 L 289.60 887.50 L 286.80 884.00 L 284.50 880.10 L 282.80 876.20 L 281.90 872.40 L 281.50 868.50 L 282.10 666.60 L 282.40 670.50 L 283.40 674.30 L 285.00 678.20 L 287.40 682.10 L 290.20 685.60 L 293.70 689.00 L 297.90 692.40 L 303.10 695.80 L 308.80 698.70 L 315.00 701.30 L 321.60 703.50 L 328.40 705.20 L 335.40 706.50 L 342.60 707.30 L 349.90 707.80 L 357.10 707.80 L 364.40 707.30 L 371.60 706.50 L 378.60 705.20 L 385.40 703.50 L 392.00 701.30 L 398.10 698.70 L 403.80 695.80 L 721.80 510.90 L 726.90 507.70 L 731.10 504.30 L 734.50 500.90 L 737.30 497.40 L 739.60 493.50 L 741.20 489.70 L 742.10 485.90 L 742.40 482.00 Z" fill="#70444d" fill-rule="nonzero" group-id="1,21" node-id="166" stroke="none" target-height="427.7" target-width="460.90002" target-x="281.5" target-y="482"/><path d="M 681.80 592.30 L 684.10 591.30 L 686.00 590.80 L 687.80 590.80 L 689.50 591.20 L 690.90 592.00 L 692.10 593.20 L 692.90 594.70 L 693.50 596.60 L 693.70 599.10 L 693.70 673.70 L 692.30 679.00 L 690.40 682.90 L 688.10 686.40 L 686.20 688.50 L 682.10 691.70 L 439.70 831.60 L 437.50 832.70 L 435.50 833.20 L 433.80 833.20 L 432.10 832.80 L 430.70 832.00 L 429.50 830.80 L 428.70 829.20 L 428.10 827.30 L 427.90 824.80 L 427.80 750.20 L 429.30 744.90 L 431.10 741.10 L 433.50 737.60 L 435.40 735.40 L 439.50 732.30 L 681.80 592.30 Z" fill="#dbe6fa" fill-rule="nonzero" group-id="1,22" node-id="171" stroke="none" target-height="242.40002" target-width="265.90002" target-x="427.8" target-y="590.8"/><path d="M 453.40 794.60 L 592.40 714.30 L 593.90 714.40 L 594.40 715.30 L 594.20 716.30 L 454.80 796.90 L 454.00 797.10 L 453.00 796.40 L 452.90 795.10 L 453.40 794.60 Z M 453.40 772.50 L 667.10 649.20 L 667.80 649.00 L 668.40 649.20 L 669.10 650.30 L 669.00 650.90 L 668.40 651.50 L 454.80 774.80 L 454.00 775.00 L 453.00 774.30 L 452.90 773.10 L 453.40 772.50 Z M 453.40 750.40 L 667.10 627.10 L 667.80 626.90 L 668.40 627.10 L 669.10 628.20 L 669.00 628.80 L 668.40 629.40 L 454.80 752.70 L 454.00 752.90 L 453.00 752.20 L 452.90 751.00 L 453.40 750.40 Z" fill="#4f575f" fill-rule="nonzero" group-id="1,23" node-id="176" stroke="none" target-height="170.19995" target-width="216.19998" target-x="452.9" target-y="626.9"/><path d="M 389.20 536.70 L 516.20 463.40 L 527.60 543.30 L 400.60 616.60 L 389.20 536.70 Z" fill="#fdc8b8" fill-rule="nonzero" group-id="1,24" node-id="181" stroke="none" target-height="153.19998" target-width="138.39996" target-x="389.2" target-y="463.4"/><path d="M 434.60 627.80 L 424.00 553.40 L 424.10 552.60 L 424.60 552.00 L 539.00 486.00 L 543.80 483.50 L 544.70 484.10 L 555.50 559.10 L 555.40 559.90 L 554.90 560.40 L 436.60 628.70 L 435.30 628.80 L 434.60 627.80 Z M 426.70 553.90 L 437.00 625.40 L 552.70 558.60 L 542.50 487.10 L 426.70 553.90 Z" fill="#f04343" fill-rule="nonzero" group-id="1,25" node-id="186" stroke="none" target-height="145.29999" target-width="131.5" target-x="424" target-y="483.5"/><path d="M 512.00 446.90 L 589.70 402.10 L 590.40 401.90 L 591.50 402.60 L 591.60 403.80 L 591.00 404.40 L 513.30 449.20 L 512.60 449.40 L 511.50 448.70 L 511.40 447.50 L 512.00 446.90 Z" fill="#4f575f" fill-rule="nonzero" group-id="1,26" node-id="191" stroke="none" target-height="47.5" target-width="80.19998" target-x="511.4" target-y="401.9"/></g></g></svg>